HIERARCHY
ROOT Hips
{
  OFFSET -31.8304 87.6567 9.73149
  CHANNELS 6 Xposition Yposition Zposition Zrotation Xrotation Yrotation
  JOINT RightUpLeg
  {
    OFFSET -9.32418 -1.57119 -0.025657
    CHANNELS 3 Zrotation Xrotation Yrotation
    JOINT RightLeg
    {
      OFFSET -0.0960642 -41.8747 0.0520458
      CHANNELS 3 Zrotation Xrotation Yrotation
      JOINT RightFoot
      {
        OFFSET -0.946809 -41.5361 -0.0790467
        CHANNELS 3 Zrotation Xrotation Yrotation
        End Site
        {
          OFFSET 0 -7.69 17.5
        }
      }
    }
  }
  JOINT LeftUpLeg
  {
    OFFSET 9.29131 -1.5975 0.016395
    CHANNELS 3 Zrotation Xrotation Yrotation
    JOINT LeftLeg
    {
      OFFSET 0.0745403 -41.866 0.0326132
      CHANNELS 3 Zrotation Xrotation Yrotation
      JOINT LeftFoot
      {
        OFFSET -0.351076 -42.0262 0.246541
        CHANNELS 3 Zrotation Xrotation Yrotation
        End Site
        {
          OFFSET 0 -7.69 17.5
        }
      }
    }
  }
  JOINT Spine
  {
    OFFSET 0.0368046 14.2997 0.0305393
    CHANNELS 3 Zrotation Xrotation Yrotation
    JOINT Spine1
    {
      OFFSET 0.0160572 9.72186 0.0245355
      CHANNELS 3 Zrotation Xrotation Yrotation
      JOINT Spine2
      {
        OFFSET 0.0170914 10.1127 0.0244287
        CHANNELS 3 Zrotation Xrotation Yrotation
        JOINT Spine3
        {
          OFFSET 0.0355733 9.71175 0.0166032
          CHANNELS 3 Zrotation Xrotation Yrotation
          JOINT Neck
          {
            OFFSET -0.0373761 10.381 0.0200737
            CHANNELS 3 Zrotation Xrotation Yrotation
            JOINT Head
            {
              OFFSET 0.0251406 9.49255 0.0511295
              CHANNELS 3 Zrotation Xrotation Yrotation
              End Site
              {
                OFFSET 0 15.95 0
              }
            }
          }
          JOINT RightShoulder
          {
            OFFSET -3.16188 6.95189 0.0539135
            CHANNELS 3 Zrotation Xrotation Yrotation
            JOINT RightArm
            {
              OFFSET -12.8775 0.0419834 0.0957705
              CHANNELS 3 Zrotation Xrotation Yrotation
              JOINT RightForeArm
              {
                OFFSET -26.3807 0.021842 -0.143268
                CHANNELS 3 Zrotation Xrotation Yrotation
                JOINT RightHand
                {
                  OFFSET -26.0283 -0.00806752 -0.000571111
                  CHANNELS 3 Zrotation Xrotation Yrotation
                  JOINT RightHandThumb1
                  {
                    OFFSET -2.48905 0.190105 3.12053
                    CHANNELS 3 Zrotation Xrotation Yrotation
                    JOINT RightHandThumb2
                    {
                      OFFSET -3.68274 0 0
                      CHANNELS 3 Zrotation Xrotation Yrotation
                      JOINT RightHandThumb3
                      {
                        OFFSET -2.55832 0 0
                        CHANNELS 3 Zrotation Xrotation Yrotation
                        End Site
                        {
                          OFFSET -2.194 0 0
                        }
                      }
                    }
                  }
                  JOINT RightInHandIndex
                  {
                    OFFSET -3.22368 0.508421 1.97842
                    CHANNELS 3 Zrotation Xrotation Yrotation
                    JOINT RightHandIndex1
                    {
                      OFFSET -5.21684 -0.091368 0.999158
                      CHANNELS 3 Zrotation Xrotation Yrotation
                      JOINT RightHandIndex2
                      {
                        OFFSET -3.61937 0 0
                        CHANNELS 3 Zrotation Xrotation Yrotation
                        JOINT RightHandIndex3
                        {
                          OFFSET -2.0521 0 0
                          CHANNELS 3 Zrotation Xrotation Yrotation
                          End Site
                          {
                            OFFSET -1.805 0 0
                          }
                        }
                      }
                    }
                  }
                  JOINT RightInHandMiddle
                  {
                    OFFSET -3.38211 0.517263 0.756737
                    CHANNELS 3 Zrotation Xrotation Yrotation
                    JOINT RightHandMiddle1
                    {
                      OFFSET -5.17411 -0.084 0.313895
                      CHANNELS 3 Zrotation Xrotation Yrotation
                      JOINT RightHandMiddle2
                      {
                        OFFSET -3.94947 0 0
                        CHANNELS 3 Zrotation Xrotation Yrotation
                        JOINT RightHandMiddle3
                        {
                          OFFSET -2.47579 0 0
                          CHANNELS 3 Zrotation Xrotation Yrotation
                          End Site
                          {
                            OFFSET -1.975 0 0
                          }
                        }
                      }
                    }
                  }
                  JOINT RightInHandRing
                  {
                    OFFSET -3.36516 0.537895 -0.128947
                    CHANNELS 3 Zrotation Xrotation Yrotation
                    JOINT RightHandRing1
                    {
                      OFFSET -4.63474 -0.022105 -0.478947
                      CHANNELS 3 Zrotation Xrotation Yrotation
                      JOINT RightHandRing2
                      {
                        OFFSET -3.44238 0 0
                        CHANNELS 3 Zrotation Xrotation Yrotation
                        JOINT RightHandRing3
                        {
                          OFFSET -2.3881 0 0
                          CHANNELS 3 Zrotation Xrotation Yrotation
                          End Site
                          {
                            OFFSET -1.857 0 0
                          }
                        }
                      }
                    }
                  }
                  JOINT RightInHandPinky
                  {
                    OFFSET -3.16105 0.469368 -1.20179
                    CHANNELS 3 Zrotation Xrotation Yrotation
                    JOINT RightHandPinky1
                    {
                      OFFSET -4.14105 -0.022105 -1.09053
                      CHANNELS 3 Zrotation Xrotation Yrotation
                      JOINT RightHandPinky2
                      {
                        OFFSET -2.75653 0 0
                        CHANNELS 3 Zrotation Xrotation Yrotation
                        JOINT RightHandPinky3
                        {
                          OFFSET -1.74189 0 0
                          CHANNELS 3 Zrotation Xrotation Yrotation
                          End Site
                          {
                            OFFSET -1.645 0 0
                          }
                        }
                      }
                    }
                  }
                }
              }
            }
          }
          JOINT LeftShoulder
          {
            OFFSET 3.22497 6.89097 -0.0161007
            CHANNELS 3 Zrotation Xrotation Yrotation
            JOINT LeftArm
            {
              OFFSET 12.8034 -0.0603944 -0.0289408
              CHANNELS 3 Zrotation Xrotation Yrotation
              JOINT LeftForeArm
              {
                OFFSET 26.5164 -0.00331163 -0.0289653
                CHANNELS 3 Zrotation Xrotation Yrotation
                JOINT LeftHand
                {
                  OFFSET 25.9929 -0.00353192 -0.0207406
                  CHANNELS 3 Zrotation Xrotation Yrotation
                  JOINT LeftHandThumb1
                  {
                    OFFSET 2.48905 0.190105 3.12053
                    CHANNELS 3 Zrotation Xrotation Yrotation
                    JOINT LeftHandThumb2
                    {
                      OFFSET 3.68274 0 0
                      CHANNELS 3 Zrotation Xrotation Yrotation
                      JOINT LeftHandThumb3
                      {
                        OFFSET 2.55832 0 0
                        CHANNELS 3 Zrotation Xrotation Yrotation
                        End Site
                        {
                          OFFSET 2.194 0 0
                        }
                      }
                    }
                  }
                  JOINT LeftInHandIndex
                  {
                    OFFSET 3.22368 0.508421 1.97842
                    CHANNELS 3 Zrotation Xrotation Yrotation
                    JOINT LeftHandIndex1
                    {
                      OFFSET 5.21684 -0.091368 0.999158
                      CHANNELS 3 Zrotation Xrotation Yrotation
                      JOINT LeftHandIndex2
                      {
                        OFFSET 3.61937 0 0
                        CHANNELS 3 Zrotation Xrotation Yrotation
                        JOINT LeftHandIndex3
                        {
                          OFFSET 2.0521 0 0
                          CHANNELS 3 Zrotation Xrotation Yrotation
                          End Site
                          {
                            OFFSET 1.805 0 0
                          }
                        }
                      }
                    }
                  }
                  JOINT LeftInHandMiddle
                  {
                    OFFSET 3.38211 0.517263 0.756737
                    CHANNELS 3 Zrotation Xrotation Yrotation
                    JOINT LeftHandMiddle1
                    {
                      OFFSET 5.17411 -0.084 0.313895
                      CHANNELS 3 Zrotation Xrotation Yrotation
                      JOINT LeftHandMiddle2
                      {
                        OFFSET 3.94947 0 0
                        CHANNELS 3 Zrotation Xrotation Yrotation
                        JOINT LeftHandMiddle3
                        {
                          OFFSET 2.47579 0 0
                          CHANNELS 3 Zrotation Xrotation Yrotation
                          End Site
                          {
                            OFFSET 1.975 0 0
                          }
                        }
                      }
                    }
                  }
                  JOINT LeftInHandRing
                  {
                    OFFSET 3.36516 0.537895 -0.128947
                    CHANNELS 3 Zrotation Xrotation Yrotation
                    JOINT LeftHandRing1
                    {
                      OFFSET 4.63474 -0.022105 -0.478947
                      CHANNELS 3 Zrotation Xrotation Yrotation
                      JOINT LeftHandRing2
                      {
                        OFFSET 3.44238 0 0
                        CHANNELS 3 Zrotation Xrotation Yrotation
                        JOINT LeftHandRing3
                        {
                          OFFSET 2.3881 0 0
                          CHANNELS 3 Zrotation Xrotation Yrotation
                          End Site
                          {
                            OFFSET 1.857 0 0
                          }
                        }
                      }
                    }
                  }
                  JOINT LeftInHandPinky
                  {
                    OFFSET 3.16105 0.469368 -1.20179
                    CHANNELS 3 Zrotation Xrotation Yrotation
                    JOINT LeftHandPinky1
                    {
                      OFFSET 4.14105 -0.022105 -1.09053
                      CHANNELS 3 Zrotation Xrotation Yrotation
                      JOINT LeftHandPinky2
                      {
                        OFFSET 2.75653 0 0
                        CHANNELS 3 Zrotation Xrotation Yrotation
                        JOINT LeftHandPinky3
                        {
                          OFFSET 1.74189 0 0
                          CHANNELS 3 Zrotation Xrotation Yrotation
                          End Site
                          {
                            OFFSET 1.645 0 0
                          }
                        }
                      }
                    }
                  }
                }
              }
            }
          }
        }
      }
    }
  }
}
MOTION
Frames:	4
Frame Time:	0.00833333
-31.1644 87.4687 24.4515 -13.1034 0.785018 40.8224 15.967 -29.3086 20.3657 -0.328232 32.3714 0.739201 0.477981 -4.60122 22.4146 29.255 -8.48851 23.712 0.16135 46.6727 -1.2585 0.775903 -7.93714 14.3041 -2.57536 0.399911 -2.99348 -5.12659 0.933419 -5.96818 -5.12658 0.933417 -5.96817 -5.12659 0.93342 -5.96819 5.44037 10.1831 14.6473 -16.5015 -11.1195 39.159 -0.102599 0.48705 -6.9946 50.3939 -8.1363 43.4959 -28.5113 -41.0218 87.3545 0.00300787 -0.724833 -0.0918322 -7.95139e-16 -6.36111e-15 -0 -7.25317e-08 8.24091e-10 -2.87388e-05 -4.77083e-15 3.18055e-15 -1.59028e-15 -7.95139e-16 -6.36111e-15 -0 4.77083e-15 -3.18055e-15 -0 -3.18055e-15 0 -1.59028e-15 7.95139e-16 -3.18055e-15 1.59028e-15 -7.95139e-16 -6.36111e-15 -0 4.77083e-15 -3.18055e-15 -0 5.88475e-05 1.85964e-09 8.19288e-09 -0 0 3.18055e-15 -7.95139e-16 -6.36111e-15 -0 4.77083e-15 -3.18055e-15 -0 5.79944e-05 -2.33488e-08 -2.03695e-07 2.38542e-15 6.36111e-15 -3.97569e-15 -7.95139e-16 -6.36111e-15 -0 4.77083e-15 -3.18055e-15 -0 0.000198188 -4.52037e-08 -9.07583e-08 2.38542e-15 -6.36111e-15 -1.59028e-15 -0.102599 0.48705 -6.9946 -12.3408 -2.58484 -130.551 15.8409 -9.06804 -29.4705 0.0928455 7.4047 -1.15166 -9.54166e-15 3.18055e-15 -0 -4.77083e-15 -3.18055e-15 -0 1.59028e-15 -6.36111e-15 -3.18055e-15 -9.54166e-15 3.18055e-15 -0 -4.77083e-15 -3.18055e-15 -0 -0.000189233 1.31077e-08 -1.55717e-07 6.36111e-15 3.18055e-15 -3.18055e-15 -9.54166e-15 3.18055e-15 -0 -4.77083e-15 -3.18055e-15 -0 1.59028e-15 -6.36111e-15 -3.18055e-15 -1.76556e-31 3.18055e-15 3.18055e-15 -9.54166e-15 3.18055e-15 -0 -4.77083e-15 -3.18055e-15 -0 1.59028e-15 -6.36111e-15 -3.18055e-15 -1.76556e-31 3.18055e-15 3.18055e-15 -9.54166e-15 3.18055e-15 -0 -4.77083e-15 -3.18055e-15 -0 1.59028e-15 -6.36111e-15 -3.18055e-15 -1.76556e-31 3.18055e-15 3.18055e-15 
-31.1684 87.4982 24.614 -13.06 0.900852 40.6518 16.0164 -29.2572 20.5071 -0.327762 32.3534 0.739672 0.450717 -4.5193 22.4673 29.2984 -8.42711 23.7565 0.164751 46.7453 -1.2611 0.676498 -7.56496 14.1124 -2.59205 0.383933 -2.99425 -5.16073 0.902345 -5.97019 -5.16072 0.902345 -5.97018 -5.16073 0.902345 -5.9702 5.31792 10.1878 14.6803 -16.3013 -11.505 39.1932 -0.144459 0.415984 -6.99644 49.6191 -9.11957 43.4035 -28.4705 -41.209 87.7007 0.00642083 0.170911 0.0216243 -1.59028e-15 3.18055e-15 1.59028e-15 -7.25317e-08 8.24107e-10 -2.87388e-05 6.36111e-15 3.18055e-15 1.59028e-15 -1.59028e-15 3.18055e-15 1.59028e-15 -4.77083e-15 1.27222e-14 -4.77083e-15 -8.74653e-15 0 -3.97569e-15 5.56597e-15 -6.36111e-15 5.56597e-15 -1.59028e-15 3.18055e-15 1.59028e-15 -4.77083e-15 1.27222e-14 -4.77083e-15 5.88475e-05 1.85965e-09 8.19287e-09 -7.15625e-15 -6.36111e-15 -3.18055e-15 -1.59028e-15 3.18055e-15 1.59028e-15 -4.77083e-15 1.27222e-14 -4.77083e-15 5.79944e-05 -2.33488e-08 -2.03695e-07 -1.59028e-15 -6.36111e-15 2.38542e-15 -1.59028e-15 3.18055e-15 1.59028e-15 -4.77083e-15 1.27222e-14 -4.77083e-15 0.000198188 -4.52037e-08 -9.07583e-08 7.15625e-15 3.18055e-15 5.56597e-15 -0.144459 0.415984 -6.99644 -12.6564 -2.98615 -131.083 15.9053 -9.13042 -29.608 0.104033 7.65938 -1.1918 -3.18055e-15 0 -3.18055e-15 -7.95139e-15 3.18055e-15 -0 -9.54166e-15 6.36111e-15 3.18055e-15 -3.18055e-15 0 -3.18055e-15 -7.95139e-15 3.18055e-15 -0 -0.000189233 1.31077e-08 -1.55717e-07 1.59028e-15 6.36111e-15 -0 -3.18055e-15 0 -3.18055e-15 -7.95139e-15 3.18055e-15 -0 -9.54166e-15 6.36111e-15 3.18055e-15 -6.36111e-15 0 -0 -3.18055e-15 0 -3.18055e-15 -7.95139e-15 3.18055e-15 -0 -9.54166e-15 6.36111e-15 3.18055e-15 -6.36111e-15 0 -0 -3.18055e-15 0 -3.18055e-15 -7.95139e-15 3.18055e-15 -0 -9.54166e-15 6.36111e-15 3.18055e-15 -6.36111e-15 0 -0 
-31.1942 87.5206 24.7961 -13.0218 1.01209 40.4924 16.0674 -29.206 20.6456 -0.327182 32.3283 0.740067 0.426668 -4.44702 22.5105 29.3493 -8.37722 23.8059 0.168262 46.8215 -1.26366 0.577307 -7.1841 13.9196 -2.60636 0.369343 -2.99616 -5.19006 0.873999 -5.97278 -5.19005 0.873994 -5.97277 -5.19006 0.873997 -5.97277 5.19266 10.1748 14.7134 -16.1139 -11.8757 39.236 -0.171945 0.355322 -6.9988 48.8527 -10.1011 43.3147 -28.4297 -41.3888 88.0328 0.00587094 1.0556 0.133684 -3.18055e-15 0 -3.18055e-15 -7.25317e-08 8.24091e-10 -2.87388e-05 -7.95139e-15 -3.18055e-15 1.59028e-15 -3.18055e-15 0 -3.18055e-15 -7.15625e-15 -6.36111e-15 -3.18055e-15 -5.56597e-15 0 -7.95139e-16 -3.18055e-15 -9.54166e-15 7.95139e-16 -3.18055e-15 0 -3.18055e-15 -7.15625e-15 -6.36111e-15 -3.18055e-15 5.88475e-05 1.85965e-09 8.19288e-09 -2.38542e-15 3.18055e-15 -3.18055e-15 -3.18055e-15 0 -3.18055e-15 -7.15625e-15 -6.36111e-15 -3.18055e-15 5.79944e-05 -2.33488e-08 -2.03695e-07 -6.36111e-15 0 -7.15625e-15 -3.18055e-15 0 -3.18055e-15 -7.15625e-15 -6.36111e-15 -3.18055e-15 0.000198188 -4.52038e-08 -9.07583e-08 3.97569e-15 -3.18055e-15 1.59028e-15 -0.171945 0.355322 -6.9988 -12.9846 -3.40421 -131.604 15.9647 -9.18866 -29.7345 0.114916 7.90059 -1.22986 1.76556e-31 3.18055e-15 -3.18055e-15 -1.59028e-15 3.18055e-15 9.54166e-15 3.18055e-15 3.18055e-15 -0 1.76556e-31 3.18055e-15 -3.18055e-15 -1.59028e-15 3.18055e-15 9.54166e-15 -0.000189233 1.31077e-08 -1.55717e-07 4.77083e-15 6.36111e-15 6.36111e-15 1.76556e-31 3.18055e-15 -3.18055e-15 -1.59028e-15 3.18055e-15 9.54166e-15 3.18055e-15 3.18055e-15 -0 -1.59028e-15 0 3.18055e-15 1.76556e-31 3.18055e-15 -3.18055e-15 -1.59028e-15 3.18055e-15 9.54166e-15 3.18055e-15 3.18055e-15 -0 -1.59028e-15 0 3.18055e-15 1.76556e-31 3.18055e-15 -3.18055e-15 -1.59028e-15 3.18055e-15 9.54166e-15 3.18055e-15 3.18055e-15 -0 -1.59028e-15 0 3.18055e-15 
-31.1928 87.5402 24.9591 -12.986 1.11059 40.3445 16.1216 -29.1532 20.7763 -0.326678 32.3081 0.740484 0.406451 -4.38124 22.5571 29.4009 -8.32699 23.842 0.171177 46.8793 -1.26565 0.47605 -6.78395 13.7371 -2.61629 0.358452 -3.00051 -5.21046 0.852956 -5.98181 -5.21046 0.852955 -5.98181 -5.21048 0.852961 -5.98182 5.03327 10.1221 14.7445 -15.9086 -12.2277 39.3011 -0.189377 0.296349 -7.00876 48.0936 -11.0614 43.2377 -28.3856 -41.5684 88.3675 0.00240106 1.87405 0.237325 -7.95139e-16 -6.36111e-15 2.38542e-15 -7.25317e-08 8.24088e-10 -2.87388e-05 3.53113e-31 -6.36111e-15 3.18055e-15 -7.95139e-16 -6.36111e-15 2.38542e-15 -2.38542e-15 -3.18055e-15 -0 2.38542e-15 3.18055e-15 -1.59028e-15 4.77083e-15 -3.18055e-15 -5.56597e-15 -7.95139e-16 -6.36111e-15 2.38542e-15 -2.38542e-15 -3.18055e-15 -0 5.88475e-05 1.85965e-09 8.19288e-09 -4.77083e-15 -6.36111e-15 -4.77083e-15 -7.95139e-16 -6.36111e-15 2.38542e-15 -2.38542e-15 -3.18055e-15 -0 5.79944e-05 -2.33488e-08 -2.03695e-07 2.38542e-15 3.18055e-15 2.38542e-15 -7.95139e-16 -6.36111e-15 2.38542e-15 -2.38542e-15 -3.18055e-15 -0 0.000198188 -4.52037e-08 -9.07583e-08 1.59028e-15 -9.54166e-15 2.38542e-15 -0.189377 0.296349 -7.00876 -13.3392 -3.84701 -132.1 16.0359 -9.25863 -29.8859 0.1202 8.01067 -1.24723 3.18055e-15 -3.18055e-15 -0 3.18055e-15 3.18055e-15 -0 3.18055e-15 6.36111e-15 -0 3.18055e-15 -3.18055e-15 -0 3.18055e-15 3.18055e-15 -0 -0.000189233 1.31077e-08 -1.55717e-07 3.18055e-15 3.18055e-15 3.18055e-15 3.18055e-15 -3.18055e-15 -0 3.18055e-15 3.18055e-15 -0 3.18055e-15 6.36111e-15 -0 7.95139e-15 6.36111e-15 -6.36111e-15 3.18055e-15 -3.18055e-15 -0 3.18055e-15 3.18055e-15 -0 3.18055e-15 6.36111e-15 -0 7.95139e-15 6.36111e-15 -6.36111e-15 3.18055e-15 -3.18055e-15 -0 3.18055e-15 3.18055e-15 -0 3.18055e-15 6.36111e-15 -0 7.95139e-15 6.36111e-15 -6.36111e-15 
